<svg xmlns="http://www.w3.org/2000/svg" viewBox="0 0 41 60.128">
  <defs>
    <style>
      .cls-1 {
        fill: #9f9f9f;
      }
    </style>
  </defs>
  <g id="_001-worldwide" data-name="001-worldwide" transform="translate(-77.94)">
    <g id="Group_417" data-name="Group 417" transform="translate(77.94)">
      <path id="Path_497" data-name="Path 497" class="cls-1" d="M117.377,12.664a20.5,20.5,0,1,0-20.063,28.3v8.565a5.362,5.362,0,1,0,2.233,0V40.961a20.508,20.508,0,0,0,17.83-28.3Zm-1.792,14.124h-5.669a28.244,28.244,0,0,0,.761-6.332,30.52,30.52,0,0,0-.65-6.258h5.559A18.069,18.069,0,0,1,115.586,26.788Zm-34.3,0A18.2,18.2,0,0,1,81.3,14.2h5.755a31.4,31.4,0,0,0-.65,6.258,28.243,28.243,0,0,0,.761,6.332Zm7.338-6.32a28.936,28.936,0,0,1,.687-6.258h8.013V26.8H89.473A26.06,26.06,0,0,1,88.626,20.468ZM99.548,2.417c3.166.675,6.05,4.491,7.633,9.571H99.548Zm-2.221.049v9.522H89.9C91.449,7.007,94.234,3.264,97.326,2.466Zm0,26.555v9.436c-2.957-.871-5.62-4.8-7.2-9.436Zm2.221,9.486V29.021h7.4C105.34,33.758,102.591,37.758,99.548,38.507Zm0-11.719V14.21h8.222a28.851,28.851,0,0,1,.687,6.258,26.566,26.566,0,0,1-.834,6.332H99.548v-.012Zm15.044-14.811h-5.1a25.694,25.694,0,0,0-2.172-5.35,18.06,18.06,0,0,0-2.2-3.154A18.251,18.251,0,0,1,114.592,11.977ZM91.449,3.62c.2-.086.393-.16.6-.233a17.255,17.255,0,0,0-2.27,3.252,25.424,25.424,0,0,0-2.172,5.35H82.294A18.087,18.087,0,0,1,91.449,3.62Zm-9.166,25.4h5.5a23.394,23.394,0,0,0,4.81,8.8A18.24,18.24,0,0,1,82.282,29.021Zm19.29,25.745a3.129,3.129,0,1,1-3.129-3.129A3.134,3.134,0,0,1,101.572,54.766Zm3.853-17.388c-.27.11-.54.221-.822.319a23.673,23.673,0,0,0,4.688-8.676h5.3A18.084,18.084,0,0,1,105.425,37.378Z" transform="translate(-77.94)"/>
      <path id="Path_498" data-name="Path 498" class="cls-1" d="M172.023,438.317a1.117,1.117,0,1,0,1.117-1.117A1.129,1.129,0,0,0,172.023,438.317Z" transform="translate(-160.478 -383.551)"/>
      <path id="Path_499" data-name="Path 499" class="cls-1" d="M113.523,438.317a1.117,1.117,0,1,0,1.117-1.117A1.113,1.113,0,0,0,113.523,438.317Z" transform="translate(-109.157 -383.551)"/>
      <path id="Path_500" data-name="Path 500" class="cls-1" d="M142.723,438.317a1.117,1.117,0,1,0,1.117-1.117A1.129,1.129,0,0,0,142.723,438.317Z" transform="translate(-134.773 -383.551)"/>
      <path id="Path_501" data-name="Path 501" class="cls-1" d="M84.454,437.531a1.1,1.1,0,1,0,.785-.331A1.2,1.2,0,0,0,84.454,437.531Z" transform="translate(-83.364 -383.551)"/>
      <path id="Path_502" data-name="Path 502" class="cls-1" d="M387.854,437.531a1.1,1.1,0,1,0,.785-.331A1.2,1.2,0,0,0,387.854,437.531Z" transform="translate(-349.534 -383.551)"/>
      <path id="Path_503" data-name="Path 503" class="cls-1" d="M359.44,437.3a1.117,1.117,0,1,0,1.117,1.117A1.121,1.121,0,0,0,359.44,437.3Z" transform="translate(-323.917 -383.639)"/>
      <path id="Path_504" data-name="Path 504" class="cls-1" d="M330.14,437.3a1.117,1.117,0,1,0,1.117,1.117A1.121,1.121,0,0,0,330.14,437.3Z" transform="translate(-298.212 -383.639)"/>
      <path id="Path_505" data-name="Path 505" class="cls-1" d="M299.823,438.317a1.117,1.117,0,1,0,1.117-1.117A1.113,1.113,0,0,0,299.823,438.317Z" transform="translate(-272.596 -383.551)"/>
    </g>
  </g>
</svg>
