<svg id="Layer_1" data-name="Layer 1" xmlns="http://www.w3.org/2000/svg" viewBox="0 0 44.31 47.93"><defs><style>.cls-1{fill:#9f9f9f;}</style></defs><title>Icon_Ping Status</title><path class="cls-1" d="M22.15,44.31A22.16,22.16,0,1,1,44.31,22.16,22.18,22.18,0,0,1,22.15,44.31Zm0-40.81A18.65,18.65,0,1,0,40.8,22.16,18.68,18.68,0,0,0,22.15,3.5Z"/><rect class="cls-1" x="0.17" y="40.43" width="11.12" height="3.5" transform="translate(-34.47 28.17) rotate(-63.04)"/><rect class="cls-1" x="36.82" y="36.63" width="3.5" height="11.12" transform="translate(-14.94 22.1) rotate(-26.99)"/><polygon class="cls-1" points="26.99 35.59 20.51 22.81 20.51 7.41 24.01 7.41 24.01 21.97 30.11 34.01 26.99 35.59"/></svg>